<?xml version="1.0" encoding="utf-8"?>
<!-- Generator: Adobe Illustrator 27.2.0, SVG Export Plug-In . SVG Version: 6.00 Build 0)  -->
<svg version="1.1" id="Calque_1" xmlns="http://www.w3.org/2000/svg" xmlns:xlink="http://www.w3.org/1999/xlink" x="0px" y="0px"
	 viewBox="0 0 300 72" style="enable-background:new 0 0 300 72;" xml:space="preserve">
<style type="text/css">
	.st0{fill:#9D9D9D;}
	.st1{fill:#00AAA0;}
</style>
<g>
	<path d="M1.7,17.5c1.2-2.2,2.7-3.8,4.8-5c2-1.2,4.2-1.8,6.7-1.8c1.8,0,3.6,0.4,5.4,1.2c1.8,0.8,3.2,1.8,4.2,3.2V1.5h5.8V39h-5.8
		v-4.2c-0.9,1.3-2.3,2.5-3.9,3.3c-1.7,0.9-3.6,1.3-5.7,1.3c-2.4,0-4.6-0.6-6.7-1.8c-2-1.2-3.6-3-4.8-5.2C0.6,30.2,0,27.7,0,24.9
		S0.6,19.6,1.7,17.5z M21.6,20c-0.8-1.4-1.8-2.5-3.1-3.2c-1.3-0.7-2.7-1.1-4.1-1.1c-1.5,0-2.9,0.4-4.1,1.1c-1.3,0.7-2.3,1.8-3.1,3.2
		c-0.8,1.4-1.2,3.1-1.2,5s0.4,3.6,1.2,5.1c0.8,1.5,1.8,2.6,3.1,3.3c1.3,0.8,2.7,1.1,4.1,1.1c1.5,0,2.9-0.4,4.1-1.1
		c1.3-0.7,2.3-1.8,3.1-3.3c0.8-1.4,1.2-3.1,1.2-5S22.4,21.4,21.6,20z"/>
	<path d="M45,11.9c1.7-0.9,3.6-1.3,5.7-1.3c2.5,0,4.7,0.6,6.7,1.8c2,1.2,3.6,2.9,4.7,5c1.1,2.2,1.7,4.7,1.7,7.5s-0.6,5.3-1.7,7.5
		c-1.1,2.2-2.7,3.9-4.7,5.2c-2,1.2-4.2,1.8-6.7,1.8c-2.2,0-4.1-0.4-5.7-1.3c-1.7-0.8-3-1.9-4-3.2v4h-5.8V1.5H41v13.7
		C42,13.9,43.3,12.8,45,11.9z M56.8,19.9c-0.8-1.4-1.8-2.5-3.1-3.2c-1.3-0.7-2.7-1.1-4.2-1.1c-1.5,0-2.8,0.4-4.1,1.1
		C44,17.5,43,18.6,42.2,20c-0.8,1.4-1.2,3.1-1.2,5s0.4,3.6,1.2,5c0.8,1.4,1.8,2.5,3.1,3.3c1.3,0.7,2.7,1.1,4.1,1.1
		c1.5,0,2.9-0.4,4.2-1.1c1.3-0.8,2.3-1.9,3.1-3.3c0.8-1.5,1.2-3.1,1.2-5.1S57.6,21.3,56.8,19.9z"/>
	<path d="M101.1,38.2c-1.7-0.8-3.1-1.9-4.1-3.2c-1-1.4-1.6-2.9-1.6-4.6h6c0.1,1.2,0.7,2.2,1.7,3c1,0.8,2.3,1.2,3.9,1.2
		c1.6,0,2.9-0.3,3.8-0.9c0.9-0.6,1.3-1.4,1.3-2.4c0-1-0.5-1.8-1.5-2.3c-1-0.5-2.6-1.1-4.7-1.7c-2.1-0.6-3.8-1.1-5.1-1.7
		c-1.3-0.5-2.5-1.4-3.4-2.5s-1.4-2.6-1.4-4.4c0-1.5,0.4-2.8,1.3-4.1c0.9-1.2,2.1-2.2,3.8-2.9c1.6-0.7,3.5-1.1,5.6-1.1
		c3.2,0,5.7,0.8,7.7,2.4c1.9,1.6,3,3.8,3.1,6.6h-5.8c-0.1-1.2-0.6-2.2-1.5-3c-0.9-0.7-2.1-1.1-3.7-1.1c-1.5,0-2.7,0.3-3.5,0.9
		c-0.8,0.6-1.2,1.3-1.2,2.3c0,0.7,0.3,1.4,0.8,1.9c0.5,0.5,1.2,0.9,2,1.2c0.8,0.3,1.9,0.7,3.4,1.1c2,0.5,3.7,1.1,5,1.6
		c1.3,0.6,2.4,1.4,3.4,2.5c0.9,1.1,1.4,2.5,1.5,4.3c0,1.6-0.4,3-1.3,4.2c-0.9,1.2-2.1,2.2-3.7,2.9c-1.6,0.7-3.5,1.1-5.6,1.1
		C104.8,39.4,102.8,39,101.1,38.2z"/>
	<path d="M148.2,27.2h-21.3c0.2,2.2,1,4,2.5,5.4c1.5,1.3,3.3,2,5.5,2c3.1,0,5.3-1.3,6.6-3.9h6.2c-0.8,2.6-2.4,4.7-4.6,6.3
		c-2.2,1.6-5,2.5-8.2,2.5c-2.7,0-5.1-0.6-7.2-1.8c-2.1-1.2-3.8-2.9-5-5.1c-1.2-2.2-1.8-4.7-1.8-7.6c0-2.9,0.6-5.4,1.7-7.6
		c1.2-2.2,2.8-3.9,4.9-5c2.1-1.2,4.5-1.8,7.3-1.8c2.6,0,5,0.6,7,1.7c2.1,1.1,3.7,2.8,4.8,4.8s1.7,4.5,1.7,7.2
		C148.4,25.4,148.4,26.3,148.2,27.2z M142.4,22.5c0-2.1-0.8-3.8-2.3-5.1c-1.5-1.3-3.3-1.9-5.5-1.9c-2,0-3.7,0.6-5.1,1.9
		c-1.4,1.3-2.3,3-2.5,5.1H142.4z"/>
	<path d="M162.2,11.8c1.4-0.8,3.1-1.2,5-1.2v6h-1.5c-2.3,0-4,0.6-5.1,1.7c-1.2,1.1-1.7,3.1-1.7,6V39h-5.8V11.1h5.8v4
		C159.7,13.7,160.8,12.6,162.2,11.8z"/>
	<path d="M185.3,33.8l7.9-22.7h6.1L188.7,39h-6.9l-10.6-27.9h6.2L185.3,33.8z"/>
	<path d="M205,6.3c-0.7-0.7-1.1-1.6-1.1-2.6c0-1,0.4-1.9,1.1-2.6s1.6-1.1,2.6-1.1c1,0,1.9,0.4,2.6,1.1c0.7,0.7,1.1,1.6,1.1,2.6
		c0,1-0.4,1.9-1.1,2.6c-0.7,0.7-1.6,1.1-2.6,1.1C206.6,7.4,205.7,7,205,6.3z M210.4,11.1V39h-5.8V11.1H210.4z"/>
	<path d="M217.8,17.4c1.2-2.2,2.8-3.9,4.8-5c2.1-1.2,4.4-1.8,7.1-1.8c3.4,0,6.2,0.8,8.4,2.4c2.2,1.6,3.7,3.9,4.5,6.9h-6.2
		c-0.5-1.4-1.3-2.5-2.4-3.2c-1.1-0.8-2.5-1.2-4.2-1.2c-2.4,0-4.2,0.8-5.6,2.5c-1.4,1.7-2.1,4-2.1,7c0,3,0.7,5.3,2.1,7
		c1.4,1.7,3.3,2.5,5.6,2.5c3.3,0,5.5-1.5,6.6-4.4h6.2c-0.8,2.8-2.3,5.1-4.6,6.8c-2.2,1.7-5,2.5-8.3,2.5c-2.7,0-5-0.6-7.1-1.8
		c-2.1-1.2-3.7-2.9-4.8-5.1c-1.2-2.2-1.7-4.7-1.7-7.6C216.1,22.1,216.7,19.6,217.8,17.4z"/>
	<path d="M273.7,27.2h-21.3c0.2,2.2,1,4,2.5,5.4s3.3,2,5.5,2c3.1,0,5.3-1.3,6.6-3.9h6.2c-0.8,2.6-2.4,4.7-4.6,6.3
		c-2.2,1.6-5,2.5-8.2,2.5c-2.7,0-5.1-0.6-7.2-1.8c-2.1-1.2-3.8-2.9-5-5.1c-1.2-2.2-1.8-4.7-1.8-7.6c0-2.9,0.6-5.4,1.7-7.6
		c1.2-2.2,2.8-3.9,4.9-5c2.1-1.2,4.5-1.8,7.3-1.8c2.6,0,5,0.6,7,1.7c2.1,1.1,3.7,2.8,4.8,4.8c1.1,2.1,1.7,4.5,1.7,7.2
		C273.9,25.4,273.9,26.3,273.7,27.2z M267.9,22.5c0-2.1-0.8-3.8-2.3-5.1c-1.5-1.3-3.3-1.9-5.5-1.9c-2,0-3.7,0.6-5.1,1.9
		c-1.4,1.3-2.3,3-2.5,5.1H267.9z"/>
	<path d="M283.4,38.2c-1.7-0.8-3.1-1.9-4.1-3.2c-1-1.4-1.6-2.9-1.6-4.6h6c0.1,1.2,0.7,2.2,1.7,3c1,0.8,2.3,1.2,3.9,1.2
		c1.6,0,2.9-0.3,3.8-0.9c0.9-0.6,1.3-1.4,1.3-2.4c0-1-0.5-1.8-1.5-2.3s-2.6-1.1-4.7-1.7c-2.1-0.6-3.8-1.1-5.1-1.7
		c-1.3-0.5-2.5-1.4-3.4-2.5c-1-1.1-1.4-2.6-1.4-4.4c0-1.5,0.4-2.8,1.3-4.1c0.9-1.2,2.1-2.2,3.8-2.9c1.6-0.7,3.5-1.1,5.6-1.1
		c3.2,0,5.7,0.8,7.7,2.4c1.9,1.6,3,3.8,3.1,6.6h-5.8c-0.1-1.2-0.6-2.2-1.5-3c-0.9-0.7-2.1-1.1-3.7-1.1c-1.5,0-2.7,0.3-3.5,0.9
		c-0.8,0.6-1.2,1.3-1.2,2.3c0,0.7,0.3,1.4,0.8,1.9c0.5,0.5,1.2,0.9,2,1.2c0.8,0.3,1.9,0.7,3.4,1.1c2,0.5,3.7,1.1,5,1.6
		c1.3,0.6,2.4,1.4,3.4,2.5c0.9,1.1,1.4,2.5,1.5,4.3c0,1.6-0.4,3-1.3,4.2c-0.9,1.2-2.1,2.2-3.7,2.9c-1.6,0.7-3.5,1.1-5.6,1.1
		C287.1,39.4,285.2,39,283.4,38.2z"/>
</g>
<g>
	<path class="st0" d="M156.9,55c0.8-0.4,1.7-0.7,2.7-0.7c1.1,0,2,0.3,2.9,0.8c0.8,0.5,1.5,1.2,2,2.1c0.5,0.9,0.7,2,0.7,3.2
		c0,1.2-0.2,2.3-0.7,3.2c-0.5,0.9-1.2,1.7-2,2.2c-0.9,0.5-1.8,0.8-2.9,0.8c-1,0-1.9-0.2-2.7-0.7c-0.8-0.4-1.3-1-1.7-1.7v2.2h-2v-16
		h2v6.3C155.6,56.1,156.2,55.5,156.9,55z M162.6,58.1c-0.4-0.7-0.8-1.2-1.5-1.5c-0.6-0.3-1.3-0.5-2-0.5c-0.7,0-1.4,0.2-2,0.5
		c-0.6,0.4-1.1,0.9-1.5,1.5c-0.4,0.7-0.6,1.4-0.6,2.3c0,0.9,0.2,1.7,0.6,2.3c0.4,0.7,0.9,1.2,1.5,1.5c0.6,0.4,1.3,0.5,2,0.5
		c0.7,0,1.4-0.2,2-0.5c0.6-0.4,1.1-0.9,1.5-1.5c0.4-0.7,0.5-1.5,0.5-2.4C163.2,59.5,163,58.8,162.6,58.1z"/>
	<path class="st0" d="M178.1,54.6L171,72h-2l2.3-5.7l-4.8-11.7h2.2l3.7,9.6l3.7-9.6H178.1z"/>
	<path class="st0" d="M188.1,66c-0.8-0.4-1.4-0.8-1.8-1.5c-0.4-0.6-0.7-1.3-0.7-2.2h2.1c0.1,0.7,0.4,1.3,0.9,1.8s1.3,0.7,2.2,0.7
		c0.9,0,1.7-0.2,2.2-0.7c0.5-0.5,0.8-1.1,0.8-1.8c0-0.6-0.2-1-0.5-1.4c-0.3-0.4-0.7-0.6-1.2-0.8c-0.5-0.2-1.1-0.4-1.9-0.6
		c-1-0.3-1.8-0.5-2.4-0.8c-0.6-0.3-1.1-0.7-1.5-1.2c-0.4-0.6-0.6-1.3-0.6-2.2c0-0.8,0.2-1.5,0.6-2.2c0.4-0.6,1-1.1,1.8-1.5
		c0.8-0.3,1.6-0.5,2.6-0.5c1.4,0,2.6,0.4,3.5,1.1c0.9,0.7,1.4,1.6,1.5,2.8h-2.2c-0.1-0.6-0.4-1.1-0.9-1.5c-0.5-0.4-1.2-0.7-2.1-0.7
		c-0.8,0-1.5,0.2-2,0.6c-0.5,0.4-0.8,1-0.8,1.8c0,0.5,0.2,1,0.5,1.3c0.3,0.3,0.7,0.6,1.1,0.8c0.5,0.2,1.1,0.4,1.9,0.6
		c1,0.3,1.8,0.5,2.4,0.8c0.6,0.3,1.1,0.7,1.6,1.2c0.4,0.6,0.6,1.3,0.6,2.3c0,0.7-0.2,1.4-0.6,2.1c-0.4,0.6-1,1.2-1.7,1.6
		s-1.7,0.6-2.7,0.6C189.8,66.5,188.9,66.4,188.1,66z"/>
	<path class="st0" d="M209.5,61.2H200c0.1,1.2,0.5,2.1,1.2,2.7c0.7,0.7,1.6,1,2.6,1c0.8,0,1.6-0.2,2.1-0.6c0.6-0.4,1-0.9,1.2-1.6
		h2.1c-0.3,1.1-0.9,2.1-1.9,2.8c-0.9,0.7-2.1,1.1-3.5,1.1c-1.1,0-2.1-0.3-3-0.8c-0.9-0.5-1.6-1.2-2.1-2.1c-0.5-0.9-0.8-2-0.8-3.2
		s0.2-2.3,0.7-3.2c0.5-0.9,1.2-1.6,2.1-2.1s1.9-0.7,3.1-0.7c1.1,0,2.1,0.2,3,0.7c0.9,0.5,1.5,1.2,2,2c0.5,0.9,0.7,1.8,0.7,2.9
		C209.6,60.4,209.5,60.8,209.5,61.2z M207,57.7c-0.3-0.5-0.8-0.9-1.3-1.2c-0.6-0.3-1.2-0.4-1.9-0.4c-1,0-1.8,0.3-2.5,0.9
		c-0.7,0.6-1.1,1.5-1.2,2.6h7.5C207.5,58.9,207.4,58.2,207,57.7z"/>
	<path class="st0" d="M212.3,57.3c0.5-0.9,1.2-1.6,2-2.1c0.9-0.5,1.8-0.8,2.9-0.8c1,0,1.9,0.2,2.7,0.7c0.8,0.5,1.3,1,1.7,1.7v-2.2h2
		V72h-2v-7.8c-0.4,0.7-0.9,1.2-1.7,1.7c-0.8,0.5-1.7,0.7-2.7,0.7c-1,0-2-0.3-2.8-0.8c-0.8-0.5-1.5-1.2-2-2.2c-0.5-0.9-0.7-2-0.7-3.2
		C211.5,59.2,211.8,58.2,212.3,57.3z M221,58.1c-0.4-0.7-0.8-1.2-1.5-1.5c-0.6-0.4-1.3-0.5-2-0.5c-0.7,0-1.4,0.2-2,0.5
		c-0.6,0.3-1.1,0.8-1.4,1.5c-0.4,0.7-0.5,1.4-0.5,2.3c0,0.9,0.2,1.7,0.5,2.4c0.4,0.7,0.8,1.2,1.4,1.5c0.6,0.4,1.3,0.5,2,0.5
		c0.7,0,1.4-0.2,2-0.5c0.6-0.4,1.1-0.9,1.5-1.5c0.4-0.7,0.5-1.4,0.5-2.3C221.5,59.6,221.4,58.8,221,58.1z"/>
	<path class="st0" d="M237.4,54.6v11.8h-2v-1.7c-0.4,0.6-0.9,1.1-1.6,1.4c-0.7,0.3-1.4,0.5-2.2,0.5c-0.9,0-1.7-0.2-2.5-0.6
		c-0.7-0.4-1.3-1-1.7-1.7c-0.4-0.8-0.6-1.7-0.6-2.8v-6.9h1.9v6.7c0,1.2,0.3,2.1,0.9,2.7c0.6,0.6,1.4,0.9,2.4,0.9
		c1.1,0,1.9-0.3,2.5-1c0.6-0.6,0.9-1.6,0.9-2.8v-6.5H237.4z"/>
	<path class="st0" d="M243,65.8c-0.9-0.5-1.6-1.2-2.1-2.1c-0.5-0.9-0.8-2-0.8-3.2c0-1.2,0.3-2.3,0.8-3.2c0.5-0.9,1.2-1.6,2.1-2.1
		c0.9-0.5,1.9-0.7,3-0.7s2.1,0.2,3,0.7c0.9,0.5,1.6,1.2,2.1,2.1c0.5,0.9,0.8,2,0.8,3.2s-0.3,2.3-0.8,3.2c-0.5,0.9-1.3,1.6-2.2,2.1
		c-0.9,0.5-1.9,0.8-3.1,0.8C244.9,66.6,243.9,66.3,243,65.8z M248,64.4c0.6-0.3,1.1-0.8,1.5-1.5c0.4-0.7,0.6-1.5,0.6-2.4
		s-0.2-1.8-0.6-2.4c-0.4-0.7-0.9-1.2-1.5-1.5c-0.6-0.3-1.3-0.5-2-0.5c-0.7,0-1.4,0.2-2,0.5c-0.6,0.3-1.1,0.8-1.4,1.5
		c-0.4,0.7-0.5,1.5-0.5,2.4c0,1,0.2,1.8,0.5,2.4c0.4,0.7,0.8,1.2,1.4,1.5c0.6,0.3,1.2,0.5,1.9,0.5S247.4,64.7,248,64.4z"/>
	<path class="st0" d="M257.2,56.2v7c0,0.6,0.1,1,0.4,1.2s0.7,0.4,1.3,0.4h1.4v1.7h-1.8c-1.1,0-1.9-0.3-2.5-0.8
		c-0.5-0.5-0.8-1.3-0.8-2.5v-7h-1.5v-1.6h1.5v-3h2v3h3.1v1.6H257.2z"/>
	<path class="st0" d="M273.4,61.2H264c0.1,1.2,0.5,2.1,1.2,2.7c0.7,0.7,1.6,1,2.6,1c0.8,0,1.6-0.2,2.1-0.6c0.6-0.4,1-0.9,1.2-1.6
		h2.1c-0.3,1.1-0.9,2.1-1.9,2.8c-0.9,0.7-2.1,1.1-3.5,1.1c-1.1,0-2.1-0.3-3-0.8c-0.9-0.5-1.6-1.2-2.1-2.1c-0.5-0.9-0.8-2-0.8-3.2
		s0.2-2.3,0.7-3.2c0.5-0.9,1.2-1.6,2.1-2.1s1.9-0.7,3.1-0.7c1.1,0,2.1,0.2,3,0.7c0.9,0.5,1.5,1.2,2,2c0.5,0.9,0.7,1.8,0.7,2.9
		C273.5,60.4,273.5,60.8,273.4,61.2z M271,57.7c-0.3-0.5-0.8-0.9-1.3-1.2s-1.2-0.4-1.9-0.4c-1,0-1.8,0.3-2.5,0.9s-1.1,1.5-1.2,2.6
		h7.5C271.5,58.9,271.3,58.2,271,57.7z"/>
	<path class="st0" d="M276.2,57.3c0.5-0.9,1.2-1.6,2-2.1c0.9-0.5,1.9-0.8,3-0.8c1.5,0,2.6,0.4,3.6,1.1c0.9,0.7,1.6,1.7,1.9,2.9h-2.1
		c-0.2-0.7-0.6-1.3-1.2-1.7c-0.6-0.4-1.3-0.6-2.2-0.6c-1.1,0-2,0.4-2.7,1.2c-0.7,0.8-1,1.9-1,3.3c0,1.4,0.3,2.5,1,3.3
		c0.7,0.8,1.6,1.2,2.7,1.2c0.9,0,1.6-0.2,2.2-0.6c0.6-0.4,1-1,1.2-1.7h2.1c-0.3,1.2-0.9,2.2-1.9,2.9c-0.9,0.7-2.1,1.1-3.6,1.1
		c-1.1,0-2.1-0.3-3-0.8c-0.9-0.5-1.5-1.2-2-2.1c-0.5-0.9-0.7-2-0.7-3.2C275.5,59.2,275.7,58.2,276.2,57.3z"/>
	<path class="st0" d="M297.7,54.9c0.7,0.4,1.3,1,1.7,1.7c0.4,0.8,0.6,1.7,0.6,2.8v7h-1.9v-6.7c0-1.2-0.3-2.1-0.9-2.7
		c-0.6-0.6-1.4-0.9-2.4-0.9c-1,0-1.9,0.3-2.5,1c-0.6,0.6-0.9,1.6-0.9,2.8v6.5h-2v-16h2v5.8c0.4-0.6,0.9-1.1,1.6-1.4
		c0.7-0.3,1.4-0.5,2.3-0.5C296.2,54.4,297,54.5,297.7,54.9z"/>
</g>
<path class="st1" d="M73.5,11.4c-2.7,0-4.9,2.2-4.9,4.9v18.3c0,2.7,2.2,4.9,4.9,4.9c2.7,0,4.9-2.2,4.9-4.9V16.3
	C78.3,13.6,76.1,11.4,73.5,11.4"/>
<path class="st1" d="M73.5,0c-2.7,0-4.9,2.2-4.9,4.9c0,2.7,2.2,4.9,4.9,4.9c2.7,0,4.9-2.2,4.9-4.9C78.3,2.2,76.1,0,73.5,0"/>
</svg>
