<?xml version="1.0" encoding="UTF-8" standalone="no"?>
<!-- Created with Inkscape (http://www.inkscape.org/) -->

<svg
   version="1.1"
   id="svg2"
   width="949.33331"
   height="274.66666"
   viewBox="0 0 949.33331 274.66666"
   sodipodi:docname="SwarmitLogo_dunkel EPS.eps"
   xmlns:inkscape="http://www.inkscape.org/namespaces/inkscape"
   xmlns:sodipodi="http://sodipodi.sourceforge.net/DTD/sodipodi-0.dtd"
   xmlns="http://www.w3.org/2000/svg"
   xmlns:svg="http://www.w3.org/2000/svg">
  <defs
     id="defs6" />
  <sodipodi:namedview
     id="namedview4"
     pagecolor="#ffffff"
     bordercolor="#000000"
     borderopacity="0.25"
     inkscape:showpageshadow="2"
     inkscape:pageopacity="0.0"
     inkscape:pagecheckerboard="0"
     inkscape:deskcolor="#d1d1d1" />
  <g
     id="g8"
     inkscape:groupmode="layer"
     inkscape:label="ink_ext_XXXXXX"
     transform="matrix(1.3333333,0,0,-1.3333333,0,274.66667)">
    <g
       id="g10"
       transform="scale(0.1)">
      <path
         d="m 167,1121.94 -88.2891,169 L 0,1126.49 l 167,-4.55"
         style="fill:#f1574d;fill-opacity:1;fill-rule:evenodd;stroke:none"
         id="path12" />
      <path
         d="M 78.7109,1290.96 167,1121.95 l 82.648,62.94 207.762,158.83 -378.6991,-52.76"
         style="fill:#f46f53;fill-opacity:1;fill-rule:evenodd;stroke:none"
         id="path14" />
      <path
         d="M 78.7109,1290.96 457.41,1343.72 259.281,1378.89 78.7109,1290.96"
         style="fill:#f26450;fill-opacity:1;fill-rule:evenodd;stroke:none"
         id="path16" />
      <path
         d="M 249.648,1184.9 167,1121.95 l 144.359,-64.1 -61.711,127.05"
         style="fill:#f57856;fill-opacity:1;fill-rule:evenodd;stroke:none"
         id="path18" />
      <path
         d="M 249.648,1184.9 311.359,1057.85 426.82,819.68 853.641,938.738 249.648,1184.9"
         style="fill:#f68459;fill-opacity:1;fill-rule:evenodd;stroke:none"
         id="path20" />
      <path
         d="M 249.648,1184.9 853.641,938.738 740.422,1559.8 457.41,1343.7 249.648,1184.9"
         style="fill:#f8955d;fill-opacity:1;fill-rule:evenodd;stroke:none"
         id="path22" />
      <path
         d="M 740.43,1559.81 853.648,938.75 1334.79,1177.56 740.43,1559.81"
         style="fill:#f9a361;fill-opacity:1;fill-rule:evenodd;stroke:none"
         id="path24" />
      <path
         d="m 740.43,1559.81 594.36,-382.25 372.49,437.81 -966.85,-55.56"
         style="fill:#fcb966;fill-opacity:1;fill-rule:evenodd;stroke:none"
         id="path26" />
      <path
         d="m 740.43,1559.81 966.85,55.56 156.8,444.63 -1123.65,-500.19"
         style="fill:#facb6e;fill-opacity:1;fill-rule:evenodd;stroke:none"
         id="path28" />
      <path
         d="M 853.648,938.75 426.828,819.68 630.629,671.07 853.648,938.75"
         style="fill:#f8985e;fill-opacity:1;fill-rule:evenodd;stroke:none"
         id="path30" />
      <path
         d="M 853.648,938.75 630.629,671.07 882.512,1.28906 853.648,938.75"
         style="fill:#fbae63;fill-opacity:1;fill-rule:evenodd;stroke:none"
         id="path32" />
      <path
         d="M 882.512,1.28125 630.621,671.078 315.879,436.852 882.512,1.28125"
         style="fill:#fdc168;fill-opacity:1;fill-rule:evenodd;stroke:none"
         id="path34" />
      <path
         d="m 2270.53,551.961 c -46.42,0 -86.06,4.539 -120.01,13.648 -33.41,9.602 -69.65,23.25 -108.12,41.95 v 5.082 l 66.78,94.14 c 16.41,-7.922 31.72,-14.722 46.42,-19.851 33.96,-12.461 72.45,-18.68 114.93,-18.68 39.61,0 70.18,7.941 92.83,24.391 22.63,15.859 33.96,36.847 33.96,62.961 0,24.929 -9.05,43.097 -27.76,54.976 -18.1,12.512 -46.95,24.973 -85.47,39.16 l -31.69,10.782 c -64.53,15.871 -116.05,38.531 -153.98,68.031 -38.47,29.508 -57.72,75.429 -57.72,138.369 0,39.71 9.04,74.33 26.03,103.24 l 188.51,15.87 -43.6,83.95 c 28.31,7.92 58.31,11.32 88.88,11.32 44.13,-1.14 81.51,-6.2 112.08,-15.86 30.57,-9.65 63.41,-23.79 99.62,-41.96 v -124.79 c -48.1,24.97 -84.33,41.98 -108.68,51.04 -24.33,9.65 -53.78,14.19 -87.74,14.19 -37.93,0 -67.94,-7.35 -91.13,-20.99 -23.23,-13.61 -34.53,-33.45 -34.53,-57.84 0,-30.04 11.3,-51.02 34.53,-64.67 23.19,-13.6 58.86,-27.19 107.56,-40.83 46.4,-13.012 82.63,-25.512 109.8,-37.442 27.17,-11.878 51.5,-31.726 71.89,-58.957 20.95,-27.25 31.13,-64.089 31.13,-111.179 -0.56,-73.711 -27.73,-128.742 -80.93,-165.571 -52.66,-36.312 -117.2,-54.48 -193.59,-54.48"
         style="fill:#6ba4be;fill-opacity:1;fill-rule:evenodd;stroke:none"
         id="path36" />
      <path
         d="m 3023.39,572.949 h -137.01 l -230.95,694.761 h 155.1 c 48.7,-164.48 97.38,-325.562 147.76,-488.319 l 10.18,34.05 44.72,149.7 h 139.83 L 3023.39,572.949"
         style="fill:#6ba4be;fill-opacity:1;fill-rule:nonzero;stroke:none"
         id="path38" />
      <path
         d="M 3689.08,1267.7 3458.13,572.941 H 3320 L 3111.7,1267.7 h 154.52 c 52.1,-175.8 90.59,-303.391 137.55,-454.27 l 135.87,454.27 h 149.44"
         style="fill:#6ba4be;fill-opacity:1;fill-rule:nonzero;stroke:none"
         id="path40" />
      <path
         d="m 4132.32,1283.01 c 75.28,0 139.79,-18.71 192.47,-55.01 53.18,-36.29 79.21,-95.28 78.09,-176.35 V 719.289 c 0,-62.41 -27.17,-106.059 -82.63,-130.43 -55.48,-24.39 -134.15,-36.898 -236.05,-36.898 -82.09,0 -150.02,17.027 -203.22,51.039 -53.22,34.609 -80.37,91.32 -80.37,171.871 0,75.41 22.07,132.149 65.64,170.117 44.16,38 105.86,56.702 186.26,56.702 50.93,0 97.33,-6.202 138.09,-19.241 V 883.77 c -27.15,5.66 -56.02,8.48 -86.03,8.48 -52.06,0 -92.26,-9.059 -119.43,-27.211 -27.19,-18.711 -40.78,-46.5 -40.78,-83.391 0,-38.546 15.29,-67.488 46.44,-87.328 30.55,-19.269 67.37,-28.91 109.8,-28.91 57.77,0 99.06,3.981 122.87,12.461 23.75,8.52 36.21,24.969 36.21,49.899 v 290.39 c 0,94.14 -56.62,141.22 -170.36,141.22 -40.22,0 -80.97,-6.25 -121.17,-18.71 -40.75,-12.47 -74.15,-29.51 -100.76,-51.62 v 135.55 c 25.47,16.45 62.83,30.63 112.07,41.42 49.28,11.34 100.2,16.99 152.86,16.99"
         style="fill:#6ba4be;fill-opacity:1;fill-rule:nonzero;stroke:none"
         id="path42" />
      <path
         d="m 4608.93,1203.62 c 26.05,15.9 69.62,32.91 131.33,51.62 61.7,18.12 122.84,27.79 183.41,27.79 36.79,0 68.48,-6.26 93.97,-18.13 v -116.3 c -25.49,3.4 -56.58,5.66 -92.27,5.66 -61.13,0 -117.73,-5.08 -171.51,-14.15 V 572.961 h -144.93 v 630.659"
         style="fill:#6ba4be;fill-opacity:1;fill-rule:nonzero;stroke:none"
         id="path44" />
      <path
         d="m 5915.99,1283.01 c 96.24,0 167.01,-20.4 211.72,-61.23 44.7,-40.28 66.79,-103.78 66.79,-189.43 V 572.949 h -144.92 v 440.131 c 0,96.4 -54.88,145.17 -164.16,145.17 -48.68,0 -93.4,-12.46 -134.15,-37.43 6.22,-24.95 9.62,-54.44 9.62,-88.47 V 572.949 H 5616 v 440.131 c 0,96.4 -54.93,145.17 -164.17,145.17 -49.82,0 -99.08,-9.06 -146.61,-26.11 V 572.949 h -144.94 v 638.041 c 41.34,20.99 91.7,38.58 151.14,51.62 59.44,13.61 116.06,20.4 170.38,20.4 90.58,0 157.38,-17.57 202.1,-52.75 74.13,35.18 151.7,52.75 232.09,52.75"
         style="fill:#6ba4be;fill-opacity:1;fill-rule:nonzero;stroke:none"
         id="path46" />
      <path
         d="m 6553.95,1461.1 h -154.53 v -193.39 h 154.53 v 193.39"
         style="fill:#6ba4be;fill-opacity:1;fill-rule:evenodd;stroke:none"
         id="path48" />
      <path
         d="m 6403.36,1146.92 h 144.94 l 1.68,-573.959 h -146.62 z m 602.32,-592.111 c -63.41,0 -113.23,17.011 -149.44,51.043 -35.66,34.027 -53.78,82.808 -53.78,145.168 v 395.9 h -111.52 v 120.78 h 111.52 v 193.4 H 6951.9 V 1267.7 H 7120 V 1146.92 H 6951.9 V 780.539 c 0,-34.598 5.66,-58.988 17.54,-74.289 12.45,-15.328 33.39,-22.711 63.97,-22.711 14.7,0 29.99,2.262 45.83,6.242 16.45,4 30.02,9.66 40.76,15.867 V 576.941 c -31.69,-14.75 -70.17,-22.132 -114.32,-22.132"
         style="fill:#3d4c68;fill-opacity:1;fill-rule:nonzero;stroke:none"
         id="path50" />
      <path
         d="m 1264.05,1060.71 198.11,-179.21 53.78,351.62 -125.09,-134.43 -126.8,-37.98"
         style="fill:#f1ca74;fill-opacity:1;fill-rule:evenodd;stroke:none"
         id="path52" />
      <path
         d="m 888.75,933.078 174.9,-79.949 199.82,161.631 -105.28,-403.799 -269.44,322.117"
         style="fill:#fdc76a;fill-opacity:1;fill-rule:evenodd;stroke:none"
         id="path54" />
      <path
         d="M 885.352,490.73 1211.95,457.809 913.641,781.121 991.75,577.48 885.352,490.73"
         style="fill:#fcb665;fill-opacity:1;fill-rule:evenodd;stroke:none"
         id="path56" />
      <path
         d="m 1688.04,659.148 74.15,-148.578 -218.51,26.649 100.76,52.761 43.6,69.168"
         style="fill:#cec68c;fill-opacity:1;fill-rule:evenodd;stroke:none"
         id="path58" />
      <path
         d="m 1840.87,924.02 -83.77,-69.75 -133.59,59.539 116.6,-205.887 100.76,216.098"
         style="fill:#c3c593;fill-opacity:1;fill-rule:evenodd;stroke:none"
         id="path60" />
      <path
         d="m 1883.89,1314.79 -348.69,-35.17 318.68,345.41 -83.77,-217.82 113.78,-92.42"
         style="fill:#e6c97b;fill-opacity:1;fill-rule:evenodd;stroke:none"
         id="path62" />
      <path
         d="m 1582.18,1095.88 121.14,108.86 32.25,-214.361 -75.84,82.251 -77.55,23.25"
         style="fill:#fdcc6b;fill-opacity:1;fill-rule:evenodd;stroke:none"
         id="path64" />
      <path
         d="m 1586.71,305.809 5.08,100.402 107.56,-78.832 -68.5,2.262 -44.14,-23.832"
         style="fill:#fccc6d;fill-opacity:1;fill-rule:evenodd;stroke:none"
         id="path66" />
      <path
         d="m 994.02,135.121 65.67,99.258 157.94,-19.848 -186.8,178.649 -36.81,-258.059"
         style="fill:#fdc068;fill-opacity:1;fill-rule:evenodd;stroke:none"
         id="path68" />
      <path
         d="m 1390.85,305.809 35.64,97 136.45,15.3 -193.04,111.731 20.95,-224.031"
         style="fill:#dfc880;fill-opacity:1;fill-rule:evenodd;stroke:none"
         id="path70" />
      <path
         d="m 1810.86,530.98 161.34,16.442 -147.18,-159.942 38.48,100.981 -52.64,42.519"
         style="fill:#dbc883;fill-opacity:1;fill-rule:evenodd;stroke:none"
         id="path72" />
      <path
         d="m 1247.05,227.578 100.78,123.652 8.48,-213.851 -43.02,97 -66.24,-6.801"
         style="fill:#fdcc6b;fill-opacity:1;fill-rule:evenodd;stroke:none"
         id="path74" />
      <path
         d="m 1317.27,551.41 -76.43,69.75 -20.95,-136.691 48.68,52.179 48.7,14.762"
         style="fill:#f5cb71;fill-opacity:1;fill-rule:evenodd;stroke:none"
         id="path76" />
      <path
         d="m 1935.4,976.77 -80.39,-3.981 63.4,-86.211 -1.7,55.024 18.69,35.168"
         style="fill:#b3c39e;fill-opacity:1;fill-rule:evenodd;stroke:none"
         id="path78" />
      <path
         d="m 1411.21,808.898 -62.24,28.911 -70.77,-57.821 36.8,143.492 96.21,-114.582"
         style="fill:#e5c97c;fill-opacity:1;fill-rule:evenodd;stroke:none"
         id="path80" />
      <path
         d="m 1284.98,396.59 -49.81,-18.731 -7.34,-70.328 -58.3,98.66 115.45,-9.601"
         style="fill:#eaca79;fill-opacity:1;fill-rule:evenodd;stroke:none"
         id="path82" />
      <path
         d="m 1891.83,672.789 -94.56,9.602 86.63,-94.129 -22.64,59.558 30.57,24.969"
         style="fill:#c4c592;fill-opacity:1;fill-rule:evenodd;stroke:none"
         id="path84" />
      <path
         d="m 2149.39,1370.36 -136.42,-149.16 169.81,-7.38 -54.9,56.14 21.51,100.4"
         style="fill:#89bebb;fill-opacity:1;fill-rule:evenodd;stroke:none"
         id="path86" />
      <path
         d="m 1604.25,829.289 -67.92,-85.07 -142.66,31.23 155.68,-178.121 54.9,231.961"
         style="fill:#d5c787;fill-opacity:1;fill-rule:evenodd;stroke:none"
         id="path88" />
      <path
         d="m 2067.28,728.359 -123.4,-110.589 -32.84,217.769 77.57,-83.391 78.67,-23.789"
         style="fill:#8bbeb9;fill-opacity:1;fill-rule:evenodd;stroke:none"
         id="path90" />
    </g>
  </g>
</svg>
